Coordinates
version=1
nRows=9
nColumns=36
inDegrees=yes

Units are S.I. units (second, meters, Newtons, ...)
If the header above contains a line with 'inDegrees', this indicates whether rotational values are in degrees (yes) or radians (no).

endheader
time	pelvis_tilt	pelvis_list	pelvis_rotation	pelvis_tx	pelvis_ty	pelvis_tz	hip_flexion_r	hip_adduction_r	hip_rotation_r	knee_angle_r	knee_angle_r_beta	ankle_angle_r	subtalar_angle_r	mtp_angle_r	hip_flexion_l	hip_adduction_l	hip_rotation_l	knee_angle_l	knee_angle_l_beta	ankle_angle_l	subtalar_angle_l	mtp_angle_l	lumbar_extension	lumbar_bending	lumbar_rotation	arm_flex_r	arm_add_r	arm_rot_r	elbow_flex_r	pro_sup_r	arm_flex_l	arm_add_l	arm_rot_l	elbow_flex_l	pro_sup_l
      0.00000000	      7.90630493	     -2.29139495	     -1.12827485	      0.37019798	      1.03829676	      0.71945135	     16.46649569	     -0.43171188	     -0.55189019	     25.74248021	      0.44929104	     -3.04447269	    -13.91183844	     -6.81294567	    -13.20070316	     -1.19552674	     -2.18727967	      6.85959503	      0.11972252	      8.96325899	     -8.49524564	     -6.81294567	    -23.44282677	      1.08244908	      5.35028759	     -5.97002940	    -13.45725351	     -6.76756091	     31.73394847	     94.46302137	     22.76643766	    -13.89368235	     12.07750623	     32.14296947	     92.96956532
      0.01666670	      8.70427165	     -1.19472952	     -0.16843362	      0.36735739	      1.03707598	      0.72128539	     15.98995510	     -1.68813040	     -1.86405351	     22.16940353	      0.38692908	     -3.35680574	    -11.20248650	     -6.99305264	    -14.09608176	     -0.15699703	     -0.59933015	      8.10306779	      0.14142521	      9.31079405	    -10.19776312	     -6.99305264	    -24.43049747	     -0.30997721	      6.07792713	     -7.67952126	    -12.56335505	     -9.23392471	     32.38928285	     99.71797947	     25.61532379	    -14.34161530	     16.61307701	     32.88514503	     94.43643080
      0.03333330	      8.57620063	     -0.38315624	      0.49351756	      0.36443546	      1.03576983	      0.72381833	     15.79826956	     -2.44815964	     -1.86363226	     17.23565616	      0.30081895	     -3.79546818	    -10.62901213	     -7.01033158	    -14.57245996	      0.41707442	      0.18694072	      8.23077079	      0.14365405	      9.65831424	    -10.03174991	     -7.01033158	    -24.52790909	     -1.10588396	      5.13115908	     -7.81884881	    -12.24662404	     -8.55873463	     31.38792788	    100.50345731	     26.78173734	    -15.45414969	     18.65766285	     33.95246977	     94.10818162
      0.05000000	      8.66267603	     -0.00553745	      1.18970784	      0.36163495	      1.03340570	      0.72537056	     15.62563442	     -2.81696713	     -2.27069382	     13.21880937	      0.23071175	     -2.54393974	     -8.95878550	     -7.02977434	    -15.26028064	      0.48655487	     -0.01508065	      8.49551293	      0.14827467	     10.07319619	     -9.97183941	     -7.02977434	    -25.01987689	     -1.38163907	      4.79400135	     -8.29512346	    -12.00744904	     -8.86667916	     31.38261261	    100.35520807	     27.88575231	    -15.84531248	     19.65686966	     34.93068840	     92.87670968
      0.06666670	      8.39765268	      0.33451776	      1.50600066	      0.35923459	      1.03171393	      0.72734521	     15.80080693	     -2.97301959	     -2.32767616	      9.79977674	      0.17103837	     -1.42601386	     -6.92923069	     -7.03995107	    -15.53681953	      0.56120122	     -0.50724064	      9.22191364	      0.16095276	     10.87466914	    -10.37765530	     -7.03995107	    -24.99305154	     -1.65420062	      4.14567609	     -7.51068583	    -11.80216225	     -8.44416060	     29.74835961	    100.78609375	     28.03687920	    -16.43084231	     19.44002580	     35.98219189	     91.38019902
      0.08333330	      7.79265735	      0.55086923	      1.71513018	      0.35727705	      1.03079263	      0.72951468	     16.35447866	     -2.99643642	     -2.42178260	      7.32853039	      0.12790698	     -0.78590238	     -5.00287318	     -7.09450726	    -15.31761549	      0.46650210	     -0.56754738	     10.23995242	      0.17872089	     12.37049776	    -10.44156347	     -7.09450726	    -24.61957182	     -1.79790297	      3.77329109	     -6.96905645	    -11.67866642	     -7.80213107	     28.64154145	     99.86672579	     27.92770440	    -16.77504698	     18.67897353	     36.84930916	     90.00007681
      0.10000000	      6.99516634	      0.68001723	      1.82839784	      0.35642156	      1.03014190	      0.73097660	     17.21253851	     -2.96416959	     -2.55554301	      5.93261006	      0.10354358	     -0.82680304	     -3.58645981	     -7.10194000	    -14.61223667	      0.23617715	     -0.17296068	     11.56616207	      0.20186761	     14.42221948	    -10.23608175	     -7.10194000	    -24.06511937	     -1.92969836	      4.04273299	     -7.11690660	    -11.64199952	     -7.74260453	     28.54999893	     99.87156745	     28.09836321	    -16.72366886	     18.46502783	     37.26151512	     89.88319405
      0.11666670	      6.29284561	      0.74470974	      1.76761086	      0.35710401	      1.02940597	      0.73151040	     18.07187876	     -2.87658262	     -2.77381403	      5.65765655	      0.09874473	     -1.45449922	     -2.67948906	     -7.10641424	    -13.71275060	     -0.08447200	      0.22006689	     13.17897547	      0.23001651	     16.61878729	     -9.95919184	     -7.10641424	    -23.61834962	     -2.03130335	      4.36959375	     -7.03723508	    -11.74160188	     -7.70951531	     28.43721227	     99.88197360	     28.05187926	    -16.64970745	     18.13674923	     37.59926152	     89.79722350
      0.13333330	      5.18223366	      0.66023479	      1.57929077	      0.36056993	      1.02823235	      0.73217635	     19.36649644	     -2.62260898	     -2.97371854	      6.46352568	      0.11280980	     -2.69844319	     -2.41062889	     -7.17093847	    -12.08572274	     -0.64788441	      0.03143103	     15.20489641	      0.26537550	     19.00853639	     -8.66626686	     -7.17093847	    -22.52414881	     -1.85619377	      3.35502151	     -5.61614361	    -11.96200705	     -6.49086888	     27.19796636	     99.53562552	     25.51250371	    -17.00803976	     13.73966421	     39.85639026	     89.24706772
